<svg id="Calque_1" data-name="Calque 1" xmlns="http://www.w3.org/2000/svg" viewBox="0 0 390.09 374.4"><defs><style>.cls-1{fill:none;stroke:#ccc;}.cls-2,.cls-4{isolation:isolate;font-size:10px;}.cls-2{font-family:OpenSans, Open Sans;}.cls-3{fill:#ed2939;}.cls-4{font-family:OpenSans-Bold, Open Sans;font-weight:700;}</style></defs><title>Estimation de la dette pour les prostituées en provenance du Nigeria VF</title><line class="cls-1" x1="39.59" y1="355.37" x2="33.59" y2="355.37"/><text class="cls-2" transform="translate(25.02 358.57)">0</text><path class="cls-1" d="M50,346.72" transform="translate(-10.41 -16.35)"/><line class="cls-1" x1="39.59" y1="305.37" x2="33.59" y2="305.37"/><text class="cls-2" transform="translate(0 308.57)">10,000</text><path class="cls-1" d="M50,296.72" transform="translate(-10.41 -16.35)"/><line class="cls-1" x1="39.59" y1="255.37" x2="33.59" y2="255.37"/><text class="cls-2" transform="translate(0 258.57)">20,000</text><path class="cls-1" d="M50,246.72" transform="translate(-10.41 -16.35)"/><line class="cls-1" x1="39.59" y1="205.37" x2="33.59" y2="205.37"/><text class="cls-2" transform="translate(0 208.57)">30,000</text><path class="cls-1" d="M50,196.72" transform="translate(-10.41 -16.35)"/><line class="cls-1" x1="39.59" y1="155.37" x2="33.59" y2="155.37"/><text class="cls-2" transform="translate(0 158.57)">40,000</text><path class="cls-1" d="M50,146.72" transform="translate(-10.41 -16.35)"/><line class="cls-1" x1="39.59" y1="105.37" x2="33.59" y2="105.37"/><text class="cls-2" transform="translate(0 108.57)">50,000</text><path class="cls-1" d="M50,96.72" transform="translate(-10.41 -16.35)"/><line class="cls-1" x1="39.59" y1="55.37" x2="33.59" y2="55.37"/><text class="cls-2" transform="translate(0 58.57)">60,000</text><path class="cls-1" d="M50,46.72" transform="translate(-10.41 -16.35)"/><line class="cls-1" x1="39.59" y1="5.37" x2="33.59" y2="5.37"/><text class="cls-2" transform="translate(0 8.57)">70,000</text><path class="cls-1" d="M44,21.72h6v350H44" transform="translate(-10.41 -16.35)"/><rect class="cls-3" x="39.59" y="105.37" width="166" height="250"/><rect class="cls-3" x="223.59" y="5.37" width="166" height="350"/><line class="cls-1" x1="122.59" y1="355.37" x2="122.59" y2="361.37"/><text class="cls-4" transform="translate(83.95 371.47)">Fourchette basse</text><line class="cls-1" x1="306.59" y1="355.37" x2="306.59" y2="361.37"/><text class="cls-4" transform="translate(268.78 371.47)">Fourchette haute</text><path class="cls-1" d="M50,377.72v-6H400v6" transform="translate(-10.41 -16.35)"/></svg>