<svg id="Calque_1" data-name="Calque 1" xmlns="http://www.w3.org/2000/svg" viewBox="0 0 390.09 374.4"><defs><style>.cls-1{fill:none;stroke:#ccc;}.cls-2,.cls-4{isolation:isolate;font-size:10px;}.cls-2{font-family:OpenSans, Open Sans;}.cls-3{fill:#ed2939;}.cls-4{font-family:OpenSans-Bold, Open Sans;font-weight:700;}</style></defs><title>Estimation de la dette pour les prostituées en provenance de Chine VF</title><line class="cls-1" x1="39.59" y1="355.37" x2="33.59" y2="355.37"/><text class="cls-2" transform="translate(25.02 358.57)">0</text><path class="cls-1" d="M44,363.41" transform="translate(-10.41 -19.71)"/><path class="cls-1" d="M50,363.41" transform="translate(-10.41 -19.71)"/><line class="cls-1" x1="39.59" y1="332.04" x2="33.59" y2="332.04"/><text class="cls-2" transform="translate(5.56 335.24)">1,000</text><path class="cls-1" d="M50,340.08" transform="translate(-10.41 -19.71)"/><line class="cls-1" x1="39.59" y1="308.7" x2="33.59" y2="308.7"/><text class="cls-2" transform="translate(5.56 311.9)">2,000</text><path class="cls-1" d="M50,316.74" transform="translate(-10.41 -19.71)"/><line class="cls-1" x1="39.59" y1="285.37" x2="33.59" y2="285.37"/><text class="cls-2" transform="translate(5.56 288.57)">3,000</text><path class="cls-1" d="M50,293.41" transform="translate(-10.41 -19.71)"/><line class="cls-1" x1="39.59" y1="262.04" x2="33.59" y2="262.04"/><text class="cls-2" transform="translate(5.56 265.24)">4,000</text><path class="cls-1" d="M50,270.08" transform="translate(-10.41 -19.71)"/><line class="cls-1" x1="39.59" y1="238.7" x2="33.59" y2="238.7"/><text class="cls-2" transform="translate(5.56 241.9)">5,000</text><path class="cls-1" d="M50,246.74" transform="translate(-10.41 -19.71)"/><line class="cls-1" x1="39.59" y1="215.37" x2="33.59" y2="215.37"/><text class="cls-2" transform="translate(5.56 218.57)">6,000</text><path class="cls-1" d="M50,223.41" transform="translate(-10.41 -19.71)"/><line class="cls-1" x1="39.59" y1="192.04" x2="33.59" y2="192.04"/><text class="cls-2" transform="translate(5.56 195.24)">7,000</text><path class="cls-1" d="M50,200.08" transform="translate(-10.41 -19.71)"/><line class="cls-1" x1="39.59" y1="168.7" x2="33.59" y2="168.7"/><text class="cls-2" transform="translate(5.56 171.9)">8,000</text><path class="cls-1" d="M50,176.74" transform="translate(-10.41 -19.71)"/><line class="cls-1" x1="39.59" y1="145.37" x2="33.59" y2="145.37"/><text class="cls-2" transform="translate(5.56 148.57)">9,000</text><path class="cls-1" d="M50,153.41" transform="translate(-10.41 -19.71)"/><line class="cls-1" x1="39.59" y1="122.04" x2="33.59" y2="122.04"/><text class="cls-2" transform="translate(0 125.24)">10,000</text><path class="cls-1" d="M50,130.08" transform="translate(-10.41 -19.71)"/><line class="cls-1" x1="39.59" y1="98.7" x2="33.59" y2="98.7"/><text class="cls-2" transform="translate(0.74 101.9)">11,000</text><path class="cls-1" d="M50,106.74" transform="translate(-10.41 -19.71)"/><line class="cls-1" x1="39.59" y1="75.37" x2="33.59" y2="75.37"/><text class="cls-2" transform="translate(0 78.57)">12,000</text><path class="cls-1" d="M50,83.41" transform="translate(-10.41 -19.71)"/><line class="cls-1" x1="39.59" y1="52.04" x2="33.59" y2="52.04"/><text class="cls-2" transform="translate(0 55.24)">13,000</text><path class="cls-1" d="M50,60.08" transform="translate(-10.41 -19.71)"/><line class="cls-1" x1="39.59" y1="28.7" x2="33.59" y2="28.7"/><text class="cls-2" transform="translate(0 31.9)">14,000</text><path class="cls-1" d="M50,36.74" transform="translate(-10.41 -19.71)"/><line class="cls-1" x1="39.59" y1="5.37" x2="33.59" y2="5.37"/><text class="cls-2" transform="translate(0 8.57)">15,000</text><path class="cls-1" d="M44,25.08h6v350H44" transform="translate(-10.41 -19.71)"/><rect class="cls-3" x="39.59" y="192.04" width="166" height="163.33"/><rect class="cls-3" x="223.59" y="5.37" width="166" height="350"/><line class="cls-1" x1="122.59" y1="355.37" x2="122.59" y2="361.37"/><text class="cls-4" transform="translate(83.95 371.47)">Fourchette basse</text><line class="cls-1" x1="306.59" y1="355.37" x2="306.59" y2="361.37"/><text class="cls-4" transform="translate(268.78 371.47)">Fourchette haute</text><path class="cls-1" d="M50,381.08v-6H400v6" transform="translate(-10.41 -19.71)"/></svg>