<?xml version="1.0" encoding="utf-8"?>
<!-- Generator: Adobe Illustrator 22.0.0, SVG Export Plug-In . SVG Version: 6.00 Build 0)  -->
<svg version="1.1" id="Calque_1" xmlns="http://www.w3.org/2000/svg" xmlns:xlink="http://www.w3.org/1999/xlink" x="0px" y="0px"
	 viewBox="0 0 800 500" style="enable-background:new 0 0 800 500;" xml:space="preserve">
<style type="text/css">
	.st0{fill:none;stroke:#CCCCCC;}
	.st1{fill:#1898D6;}
	.st2{fill:none;}
	.st3{font-family:'Helvetica';}
	.st4{font-size:28px;}
	.st5{fill:#ED2939;}
	.st6{font-size:29px;}
	.st7{opacity:0.4;fill:none;stroke:#0E0043;stroke-width:0.25;enable-background:new    ;}
	.st8{font-family:'Helvetica-Bold';}
	.st9{font-size:26px;}
</style>
<path class="st0" d="M1,0v480h800V0"/>
<path class="st1" d="M1,105.6L29.1,124c28.1,18.4,84.2,55.2,126.3,81.6s70.2,42.4,91.3,56s35.1,24.8,49.1,48.8s28,60.8,77.2,82.4
	c49.1,21.6,133.4,28,182.5,32.8s63.2,8,98.2,11.2c35.1,3.2,91.2,6.4,119.3,8l28.1,1.6V480H773c-28.1,0-84.2,0-119.3,0
	s-49.1,0-98.2,0s-133.4,0-182.5,0s-63.2,0-77.2,0s-28,0-49.1,0s-49.1,0-91.3,0s-98.3,0-126.3,0H1V105.6z"/>
<rect x="728" y="450.9" class="st2" width="92.1" height="16.4"/>
<text transform="matrix(1 0 0 1 712.9698 463.8807)" class="st3 st4">Fr.</text>
<path class="st5" d="M1,0h28.1c28.1,0,84.2,0,126.3,0s70.2,0,91.3,0s35.1,0,49.1,0s28,0,77.2,0s133.4,0,182.5,0s63.2,0,98.2,0
	c35.1,0,91.2,0,119.3,0h28v446.4l-28.1-1.6c-28.1-1.6-84.2-4.8-119.3-8s-49.1-6.4-98.2-11.2c-49.1-4.8-133.4-11.2-182.5-32.8
	c-49.1-21.6-63.2-58.4-77.2-82.4s-28-35.2-49.1-48.8c-21.1-13.6-49.1-29.6-91.3-56S57.1,142.4,29.1,124L1,105.6V0z"/>
<rect x="728" y="420" class="st2" width="92.1" height="16.4"/>
<text transform="matrix(1 0 0 1 711.9698 430.0498)" class="st3 st6">Etr.</text>
<line class="st7" x1="801.1" y1="240" x2="0" y2="240"/>
<text transform="matrix(1 0 0 1 23.9518 498.1)" class="st8 st9">1996</text>
<text transform="matrix(1 0 0 1 191.3669 498.1)" class="st8 st9">2000</text>
<text transform="matrix(1.0367 0 0 1 361.7822 498.0996)" class="st8 st9">2004</text>
<g transform="translate(547.3198847262248,0)">
	<text transform="matrix(1 0 0 1 -18.123 498.1)" class="st8 st9">2008</text>
</g>
<text transform="matrix(1 0 0 1 697.6119 498.1)" class="st8 st9">2012</text>
</svg>
