<svg id="Calque_1" data-name="Calque 1" xmlns="http://www.w3.org/2000/svg" viewBox="0 0 315.37 190"><defs><style>.cls-1{fill:#ed2939;}.cls-2{fill:#988f86;}.cls-3{isolation:isolate;font-size:10px;fill:#424242;font-family:ArialMT, Arial;}.cls-4{font-size:8px;font-family:OpenSans, Open Sans;}</style></defs><title>Origine régionale des prostituées migrantes originaires du Nigéria VF</title><path class="cls-1" d="M100,5A95,95,0,1,1,54.23,16.75L73.5,51.8A55,55,0,1,0,100,45Z" transform="translate(-5 -5)"/><path class="cls-2" d="M54.23,16.75A95,95,0,0,1,100,5V45a55,55,0,0,0-26.5,6.8Z" transform="translate(-5 -5)"/><text class="cls-3" transform="translate(108.09 171.14)">92</text><text class="cls-3" transform="translate(73.57 25.86)">8</text><rect class="cls-1" x="195" y="5.29" width="14.14" height="14.14"/><text class="cls-4" transform="translate(214.28 11.47)">Originaires de l&apos;Etat <tspan x="0" y="9.6">d&apos;Edo (capitale : Benin </tspan><tspan x="0" y="19.2">City)</tspan></text><rect class="cls-2" x="195" y="39.29" width="14.14" height="14.14"/><text class="cls-4" transform="translate(214.28 45.47)">Originaires du reste du <tspan x="0" y="9.6">Nigéria</tspan></text></svg>