<svg id="Calque_1" data-name="Calque 1" xmlns="http://www.w3.org/2000/svg" viewBox="0 0 304.17 190"><defs><style>.cls-1{fill:#988f86;}.cls-2{fill:#ed2939;}.cls-3{isolation:isolate;font-size:10px;fill:#424242;font-family:ArialMT, Arial;}.cls-4{font-size:8px;font-family:OpenSans, Open Sans;}</style></defs><title>Part des prostituées migrantes originaires de Bulgarie qui passent par l&amp;apos;Italie VF</title><path class="cls-1" d="M9.65,129.36A95,95,0,0,1,100,5V45a55,55,0,0,0-52.31,72Z" transform="translate(-4.97 -5)"/><path class="cls-2" d="M100,5A95,95,0,1,1,9.65,129.36l38-12.36A55,55,0,1,0,100,45Z" transform="translate(-4.97 -5)"/><text class="cls-3" transform="translate(28.79 54.42)">30</text><text class="cls-3" transform="translate(150.14 142.58)">70</text><rect class="cls-2" x="197.03" y="1.29" width="14.14" height="14.14"/><text class="cls-4" transform="translate(216.31 7.47)">Prostituées migrantes <tspan x="0" y="9.6">originaires du Nigeria </tspan><tspan x="0" y="19.2">qui transitent par </tspan><tspan x="0" y="28.8">l&apos;Italie</tspan></text><rect class="cls-1" x="197.03" y="45.29" width="14.14" height="14.14"/><text class="cls-4" transform="translate(216.31 51.47)">Prostituées migrantes <tspan x="0" y="9.6">originaires du Nigeria </tspan><tspan x="0" y="19.2">qui transitent par </tspan><tspan x="0" y="28.8">d&apos;autres pays</tspan></text></svg>