<svg xmlns="http://www.w3.org/2000/svg" viewBox="0 0 390.09 374.4"><defs><style>.a{fill:none;stroke:#ccc;}.b,.d{isolation:isolate;font-size:10px;}.b{font-family:OpenSans, Open Sans;}.c{fill:#ed2939;}.d{font-family:OpenSans-Bold, Open Sans;font-weight:700;}</style></defs><title>Estimation de la dette pour les prostituées en provenance de Chine VF</title><line class="a" x1="39.59" y1="355.37" x2="33.59" y2="355.37"/><text class="b" transform="translate(25.02 358.57)">0</text><path class="a" d="M33.59,343.7" transform="translate(0 0)"/><path class="a" d="M39.59,343.7" transform="translate(0 0)"/><line class="a" x1="39.59" y1="332.04" x2="33.59" y2="332.04"/><text class="b" transform="translate(5.56 335.24)">1,000</text><path class="a" d="M39.59,320.37" transform="translate(0 0)"/><line class="a" x1="39.59" y1="308.7" x2="33.59" y2="308.7"/><text class="b" transform="translate(5.56 311.9)">2,000</text><path class="a" d="M39.59,297" transform="translate(0 0)"/><line class="a" x1="39.59" y1="285.37" x2="33.59" y2="285.37"/><text class="b" transform="translate(5.56 288.57)">3,000</text><path class="a" d="M39.59,273.7" transform="translate(0 0)"/><line class="a" x1="39.59" y1="262.04" x2="33.59" y2="262.04"/><text class="b" transform="translate(5.56 265.24)">4,000</text><path class="a" d="M39.59,250.37" transform="translate(0 0)"/><line class="a" x1="39.59" y1="238.7" x2="33.59" y2="238.7"/><text class="b" transform="translate(5.56 241.9)">5,000</text><path class="a" d="M39.59,227" transform="translate(0 0)"/><line class="a" x1="39.59" y1="215.37" x2="33.59" y2="215.37"/><text class="b" transform="translate(5.56 218.57)">6,000</text><path class="a" d="M39.59,203.7" transform="translate(0 0)"/><line class="a" x1="39.59" y1="192.04" x2="33.59" y2="192.04"/><text class="b" transform="translate(5.56 195.24)">7,000</text><path class="a" d="M39.59,180.37" transform="translate(0 0)"/><line class="a" x1="39.59" y1="168.7" x2="33.59" y2="168.7"/><text class="b" transform="translate(5.56 171.9)">8,000</text><path class="a" d="M39.59,157" transform="translate(0 0)"/><line class="a" x1="39.59" y1="145.37" x2="33.59" y2="145.37"/><text class="b" transform="translate(5.56 148.57)">9,000</text><path class="a" d="M39.59,133.7" transform="translate(0 0)"/><line class="a" x1="39.59" y1="122.04" x2="33.59" y2="122.04"/><text class="b" transform="translate(0 125.24)">10,000</text><path class="a" d="M39.59,110.37" transform="translate(0 0)"/><line class="a" x1="39.59" y1="98.7" x2="33.59" y2="98.7"/><text class="b" transform="translate(0.74 101.9)">11,000</text><path class="a" d="M39.59,87" transform="translate(0 0)"/><line class="a" x1="39.59" y1="75.37" x2="33.59" y2="75.37"/><text class="b" transform="translate(0 78.57)">12,000</text><path class="a" d="M39.59,63.7" transform="translate(0 0)"/><line class="a" x1="39.59" y1="52.04" x2="33.59" y2="52.04"/><text class="b" transform="translate(0 55.24)">13,000</text><path class="a" d="M39.59,40.37" transform="translate(0 0)"/><line class="a" x1="39.59" y1="28.7" x2="33.59" y2="28.7"/><text class="b" transform="translate(0 31.9)">14,000</text><path class="a" d="M39.59,17" transform="translate(0 0)"/><line class="a" x1="39.59" y1="5.37" x2="33.59" y2="5.37"/><text class="b" transform="translate(0 8.57)">15,000</text><path class="a" d="M33.59,5.37h6v350h-6" transform="translate(0 0)"/><rect class="c" x="39.59" y="192.04" width="166" height="163.33"/><rect class="c" x="223.59" y="5.37" width="166" height="350"/><line class="a" x1="122.59" y1="355.37" x2="122.59" y2="361.37"/><text class="d" transform="translate(83.95 371.47)">Fourchette basse</text><line class="a" x1="306.59" y1="355.37" x2="306.59" y2="361.37"/><text class="d" transform="translate(268.78 371.47)">Fourchette haute</text><path class="a" d="M39.59,361.37v-6h350v6" transform="translate(0 0)"/></svg>