<svg xmlns="http://www.w3.org/2000/svg" viewBox="0 0 499.8 487.93"><defs><style>.a,.h{fill:none;}.a{stroke:#ccc;}.b,.c,.e,.i{isolation:isolate;}.b,.c,.e{font-size:12.82px;}.b{font-family:OpenSans, Open Sans;}.c{font-family:Roboto-Regular, Roboto;}.d{fill:#ed2939;}.e,.i{font-family:Roboto-Bold, Roboto;font-weight:700;}.f{letter-spacing:-0.01em;}.g{letter-spacing:-0.01em;}.i{font-size:12px;}</style></defs><title>Estimation de la dette pour les prostituées en provenance du Nigeria VF</title><line class="a" x1="50.7" y1="463.87" x2="43.1" y2="463.87"/><text class="b" transform="translate(32.07 467.92)">0</text><path class="a" d="M50.7,433.5" transform="translate(0 -1.73)"/><line class="a" x1="50.7" y1="399.77" x2="43.1" y2="399.77"/><text class="c" transform="translate(0 403.83)">10 000</text><path class="a" d="M50.7,369.4" transform="translate(0 -1.73)"/><line class="a" x1="50.7" y1="335.67" x2="43.1" y2="335.67"/><text class="c" transform="translate(0 339.75)">20 000</text><path class="a" d="M50.7,305.3" transform="translate(0 -1.73)"/><line class="a" x1="50.7" y1="271.57" x2="43.1" y2="271.57"/><text class="c" transform="translate(0 275.66)">30 000</text><path class="a" d="M50.7,241.2" transform="translate(0 -1.73)"/><line class="a" x1="50.7" y1="207.47" x2="43.1" y2="207.47"/><text class="c" transform="translate(0 211.57)">40 000</text><path class="a" d="M50.7,177.2" transform="translate(0 -1.73)"/><line class="a" x1="50.7" y1="143.37" x2="43.1" y2="143.37"/><text class="c" transform="translate(0 147.48)">50 000</text><path class="a" d="M50.7,113.1" transform="translate(0 -1.73)"/><line class="a" x1="50.7" y1="79.27" x2="43.1" y2="79.27"/><text class="c" transform="translate(0 83.39)">60 000</text><path class="a" d="M50.7,49" transform="translate(0 -1.73)"/><line class="a" x1="50.7" y1="15.17" x2="43.1" y2="15.17"/><text class="c" transform="translate(0 19.31)">70 000</text><path class="a" d="M43.1,16.9h7.7V465.5H43.1" transform="translate(0 -1.73)"/><rect class="d" x="50.7" y="143.37" width="212.8" height="320.4"/><rect class="d" x="286.6" y="15.17" width="212.8" height="448.6"/><line class="a" x1="157.1" y1="463.87" x2="157.1" y2="471.47"/><text class="e" transform="translate(107.6 484.46)"><tspan class="f">F</tspan><tspan x="6.89" y="0">ou</tspan><tspan class="g" x="21.31" y="0">r</tspan><tspan x="25.87" y="0">chette basse</tspan></text><line class="a" x1="393" y1="463.87" x2="393" y2="471.47"/><text class="e" transform="translate(344.51 484.46)"><tspan class="f">F</tspan><tspan x="6.89" y="0">ou</tspan><tspan class="g" x="21.31" y="0">r</tspan><tspan x="25.87" y="0">chette haute</tspan></text><path class="a" d="M50.7,473.2v-7.7H499.3v7.7" transform="translate(0 -1.73)"/><rect class="h" x="44.7" y="1.27" width="12" height="11"/><text class="i" transform="translate(44.75 10.27)">€</text></svg>