<?xml version="1.0" encoding="utf-8"?>
<!-- Generator: Adobe Illustrator 22.0.0, SVG Export Plug-In . SVG Version: 6.00 Build 0)  -->
<svg version="1.1" id="Calque_1" xmlns="http://www.w3.org/2000/svg" xmlns:xlink="http://www.w3.org/1999/xlink" x="0px" y="0px"
	 viewBox="0 0 500 500" style="enable-background:new 0 0 500 500;" xml:space="preserve">
<style type="text/css">
	.st0{fill:none;stroke:#CCCCCC;}
	.st1{font-family:'OpenSans';}
	.st2{font-size:12.8176px;}
	.st3{font-family:'Roboto-Regular';}
	.st4{fill:#ED2939;}
	.st5{font-family:'Roboto-Bold';}
	.st6{fill:none;}
	.st7{font-size:12px;}
</style>
<title>Estimation de la dette pour les prostituées en provenance du Nigeria VF</title>
<line class="st0" x1="50.7" y1="465.6" x2="43.1" y2="465.6"/>
<text transform="matrix(1 0 0 1 32.0693 469.6553)" class="st1 st2">0</text>
<path class="st0" d="M50.7,433.5"/>
<line class="st0" x1="50.7" y1="401.5" x2="43.1" y2="401.5"/>
<text transform="matrix(1 0 0 1 -4.882812e-04 405.5674)" class="st3 st2">10 000</text>
<path class="st0" d="M50.7,369.4"/>
<line class="st0" x1="50.7" y1="337.4" x2="43.1" y2="337.4"/>
<text transform="matrix(1 0 0 1 -4.882812e-04 341.4795)" class="st3 st2">20 000</text>
<path class="st0" d="M50.7,305.3"/>
<line class="st0" x1="50.7" y1="273.3" x2="43.1" y2="273.3"/>
<text transform="matrix(1 0 0 1 -4.882812e-04 277.3916)" class="st3 st2">30 000</text>
<path class="st0" d="M50.7,241.2"/>
<line class="st0" x1="50.7" y1="209.2" x2="43.1" y2="209.2"/>
<text transform="matrix(1 0 0 1 -4.882812e-04 213.3037)" class="st3 st2">40 000</text>
<path class="st0" d="M50.7,177.2"/>
<line class="st0" x1="50.7" y1="145.1" x2="43.1" y2="145.1"/>
<text transform="matrix(1 0 0 1 -4.882812e-04 149.2158)" class="st3 st2">50 000</text>
<path class="st0" d="M50.7,113.1"/>
<line class="st0" x1="50.7" y1="81" x2="43.1" y2="81"/>
<text transform="matrix(1 0 0 1 -4.882812e-04 85.1279)" class="st3 st2">60 000</text>
<path class="st0" d="M50.7,49"/>
<line class="st0" x1="50.7" y1="16.9" x2="43.1" y2="16.9"/>
<text transform="matrix(1 0 0 1 -4.882812e-04 21.0405)" class="st3 st2">70 000</text>
<path class="st0" d="M43.1,16.9h7.7v448.6h-7.7"/>
<rect x="50.7" y="145.1" class="st4" width="212.8" height="320.4"/>
<rect x="286.6" y="16.9" class="st4" width="212.8" height="448.6"/>
<line class="st0" x1="157.1" y1="465.6" x2="157.1" y2="473.2"/>
<text transform="matrix(1 0 0 1 107.603 486.1895)" class="st5 st2">Fourchette basse</text>
<line class="st0" x1="393" y1="465.6" x2="393" y2="473.2"/>
<text transform="matrix(1 0 0 1 344.5098 486.1895)" class="st5 st2">Fourchette haute</text>
<path class="st0" d="M50.7,473.2v-7.7h448.6v7.7"/>
<rect x="44.7" y="3" class="st6" width="12" height="11"/>
<text transform="matrix(1 0 0 1 44.7447 12)" class="st5 st7">€</text>
</svg>
