<?xml version="1.0" encoding="utf-8"?>
<!-- Generator: Adobe Illustrator 22.0.0, SVG Export Plug-In . SVG Version: 6.00 Build 0)  -->
<svg version="1.1" id="Calque_1" xmlns="http://www.w3.org/2000/svg" xmlns:xlink="http://www.w3.org/1999/xlink" x="0px" y="0px"
	 viewBox="0 0 294 180.8" style="enable-background:new 0 0 294 180.8;" xml:space="preserve">
<style type="text/css">
	.st0{fill:#988F86;}
	.st1{fill:#ED2939;}
	.st2{fill:#424242;}
	.st3{font-family:'Roboto-Regular';}
	.st4{font-size:9.51px;}
	.st5{fill:none;}
	.st6{font-size:12px;}
</style>
<title>Modes de migration à travers l&amp;apos;Afrique pour les prostituées originaires du Nigéria VF</title>
<path class="st0" d="M37.3,17.2C52.7,6,71.3,0,90.4,0v38.1c-11.1,0-21.8,3.5-30.8,10L37.3,17.2z"/>
<path class="st1" d="M90.4,0c49.9,0,90.3,40.5,90.2,90.4s-40.5,90.3-90.4,90.2C40.4,180.6,0,140.1,0,90.2c0-28.9,13.9-56.1,37.3-73
	L59.7,48c-23.4,17-28.5,49.7-11.5,73.1s49.7,28.5,73.1,11.5s28.5-49.7,11.5-73.1C122.9,46,107.2,38,90.5,38L90.4,0L90.4,0z"/>
<text transform="matrix(1 0 0 1 63.04 25.83)" class="st2 st3 st4">10</text>
<text transform="matrix(1 0 0 1 107.13 161.54)" class="st2 st3 st4">90</text>
<rect x="185.5" y="4.1" class="st1" width="13.5" height="13.5"/>
<rect x="185.5" y="47.7" class="st0" width="13.5" height="13.5"/>
<rect x="204.5" y="2.7" class="st5" width="89.5" height="48.6"/>
<text transform="matrix(1 0 0 1 204.5469 11.6519)"><tspan x="0" y="0" class="st3 st6">Migration par la </tspan><tspan x="0" y="14.4" class="st3 st6">route (via </tspan><tspan x="0" y="28.8" class="st3 st6">Sahara)</tspan></text>
<text transform="matrix(1 0 0 1 207.7256 55.4216)"><tspan x="0" y="0" class="st3 st6">Autres modes</tspan><tspan x="0" y="14.4" class="st3 st6"> de migrations</tspan><tspan x="0" y="28.8" class="st3 st6"> (aéroports, </tspan><tspan x="0" y="43.2" class="st3 st6">ports…)</tspan></text>
</svg>
