<svg id="Calque_1" width="300" height="300" viewBox="0 0 315.37 190"><defs><style>.cls-1{fill:#988f86;}.cls-2{fill:#ed2939;}.cls-3{isolation:isolate;font-size:10px;fill:#424242;font-family:ArialMT, Arial;}.cls-4{font-size:8px;font-family:OpenSans, Open Sans;}</style></defs><title>Modes de migration à travers l&amp;apos;Afrique pour les prostituées originaires du Nigéria VF</title><path class="cls-1" d="M44.16,23.14A95,95,0,0,1,100,5V45A55,55,0,0,0,67.67,55.5Z" transform="translate(-5 -5)"/><path class="cls-2" d="M100,5A95,95,0,1,1,44.16,23.14L67.67,55.5A55,55,0,1,0,100,45Z" transform="translate(-5 -5)"/><text class="cls-3" transform="translate(66.26 27.17)">10</text><text class="cls-3" transform="translate(112.61 169.83)">90</text><rect class="cls-2" x="195" y="4.29" width="14.14" height="14.14"/><text class="cls-4" transform="translate(214.28 10.47)">Migration par la route, <tspan x="0" y="9.6">en passant par le </tspan><tspan x="0" y="19.2">Sahara</tspan></text><rect class="cls-1" x="195" y="38.29" width="14.14" height="14.14"/><text class="cls-4" transform="translate(214.28 44.47)">Autres modes de migra<tspan x="87.04" y="0">-</tspan><tspan x="0" y="9.6">tions (via aéroports, ports, </tspan><tspan x="0" y="19.2">brousse, etc.)</tspan></text></svg>
