<svg xmlns="http://www.w3.org/2000/svg" viewBox="0 0 294.01 180.8"><defs><style>.a{fill:#988f86;}.b{fill:#ed2939;}.c,.d{isolation:isolate;font-family:Roboto-Regular, Roboto;}.c{font-size:9.51px;fill:#424242;}.d{font-size:7.61px;}.e{letter-spacing:-0.02em;}.f{letter-spacing:-0.01em;}.g{letter-spacing:-0.01em;}.h{letter-spacing:-0.01em;}.i{letter-spacing:0em;}.j{letter-spacing:0.02em;}</style></defs><title>Modes de migration à travers l&amp;apos;Afrique pour les prostituées originaires du Nigéria VF</title><path class="a" d="M40.3,18.9A90.25,90.25,0,0,1,93.4,1.7V39.8a52.68,52.68,0,0,0-30.8,10Z" transform="translate(-3 -1.7)"/><path class="b" d="M93.4,1.7A90.32,90.32,0,1,1,40.3,18.9L62.7,49.7a52.3,52.3,0,1,0,30.8-10V1.7Z" transform="translate(-3 -1.7)"/><text class="c" transform="translate(63.04 25.83)">10</text><text class="c" transform="translate(107.13 161.54)">90</text><rect class="b" x="185.5" y="4.1" width="13.5" height="13.5"/><text class="d" transform="translate(203.84 9.94)">Mig<tspan class="e" x="12.76" y="0">r</tspan><tspan x="15.19" y="0">ation par la </tspan><tspan class="f" x="54.82" y="0">r</tspan><tspan x="57.32" y="0">oute, </tspan></text><text class="d" transform="translate(203.84 19.08)">en passant par le </text><text class="d" transform="translate(203.84 28.21)">Saha<tspan class="e" x="16.99" y="0">r</tspan><tspan x="19.41" y="0">a</tspan></text><rect class="a" x="185.5" y="36.4" width="13.5" height="13.5"/><text class="d" transform="translate(203.84 42.29)"><tspan class="g">A</tspan><tspan x="4.92" y="0">utres modes de mig</tspan><tspan class="e" x="72.15" y="0">r</tspan><tspan x="74.58" y="0">a</tspan></text><text class="d" transform="translate(286.64 42.29)">-</text><text class="d" transform="translate(203.84 51.42)">tions (via aé<tspan class="h" x="41.01" y="0">r</tspan><tspan class="i" x="43.51" y="0">opo</tspan><tspan class="j" x="56.46" y="0">r</tspan><tspan x="59.22" y="0">ts, po</tspan><tspan class="j" x="77.62" y="0">r</tspan><tspan x="80.38" y="0">ts, </tspan></text><text class="d" transform="translate(203.84 60.55)">b<tspan class="h" x="4.27" y="0">r</tspan><tspan class="i" x="6.77" y="0">ousse, etc.)</tspan></text></svg>