<?xml version="1.0" encoding="utf-8"?>
<!-- Generator: Adobe Illustrator 22.0.0, SVG Export Plug-In . SVG Version: 6.00 Build 0)  -->
<svg version="1.1" id="Calque_1" xmlns="http://www.w3.org/2000/svg" xmlns:xlink="http://www.w3.org/1999/xlink" x="0px" y="0px"
	 viewBox="0 0 300 300" style="enable-background:new 0 0 300 300;" xml:space="preserve">
<style type="text/css">
	.st0{fill:#988F86;}
	.st1{fill:#ED2939;}
	.st2{fill:#424242;}
	.st3{font-family:'Roboto-Regular';}
	.st4{font-size:9.5126px;}
	.st5{font-size:7.6101px;}
</style>
<title>Modes de migration à travers l&amp;apos;Afrique pour les prostituées originaires du Nigéria VF</title>
<path class="st0" d="M40.3,18.9C55.7,7.7,74.3,1.7,93.4,1.7v38.1c-11,0-21.8,3.5-30.8,10L40.3,18.9z"/>
<path class="st1" d="M93.4,1.7c49.9,0,90.4,40.5,90.4,90.4s-40.5,90.4-90.4,90.4S3,142,3,92c0-28.9,13.9-56.1,37.3-73.1l22.4,30.8
	c-23.4,17-28.6,49.7-11.6,73.1s49.7,28.6,73.1,11.6s28.6-49.7,11.6-73.1c-9.8-13.6-25.6-21.6-42.3-21.6V1.7z"/>
<text transform="matrix(1 0 0 1 66.0351 27.5299)" class="st2 st3 st4">10</text>
<text transform="matrix(1 0 0 1 110.1264 163.2374)" class="st2 st3 st4">90</text>
<rect x="188.5" y="5.8" class="st1" width="13.5" height="13.5"/>
<text transform="matrix(1 0 0 1 206.8417 11.6437)" class="st3 st5">Migration par la route, </text>
<text transform="matrix(1 0 0 1 206.8417 20.776)" class="st3 st5">en passant par le </text>
<text transform="matrix(1 0 0 1 206.8417 29.9078)" class="st3 st5">Sahara</text>
<rect x="188.5" y="38.1" class="st0" width="13.5" height="13.5"/>
<text transform="matrix(1 0 0 1 206.8417 43.9865)" class="st3 st5">Autres modes de migra</text>
<text transform="matrix(1 0 0 1 289.6396 43.9865)" class="st3 st5">-</text>
<text transform="matrix(1 0 0 1 206.8417 53.1188)" class="st3 st5">tions (via aéroports, ports, </text>
<text transform="matrix(1 0 0 1 206.8417 62.2511)" class="st3 st5">brousse, etc.)</text>
</svg>
