<svg id="Calque_1" width="300" height="300" xmlns="http://www.w3.org/2000/svg" viewBox="0 0 376.18 369.53"><defs><style>.cls-1{fill:none;stroke:#ccc;}.cls-2,.cls-5{isolation:isolate;font-size:10px;}.cls-2{font-family:OpenSans, Open Sans;}.cls-3{fill:#988f86;}.cls-4{fill:#ed2939;}.cls-5{font-family:OpenSans-Bold, Open Sans;font-weight:700;}</style></defs><title>Nombre de salons de massage à Paris VF</title><line class="cls-1" x1="25.68" y1="350.5" x2="19.68" y2="350.5"/><text class="cls-2" transform="translate(11.12 353.7)">0</text><line class="cls-1" x1="25.68" y1="338.41" x2="19.68" y2="338.41"/><line class="cls-1" x1="25.68" y1="326.32" x2="19.68" y2="326.32"/><line class="cls-1" x1="25.68" y1="314.23" x2="19.68" y2="314.23"/><line class="cls-1" x1="25.68" y1="302.14" x2="19.68" y2="302.14"/><line class="cls-1" x1="25.68" y1="290.05" x2="19.68" y2="290.05"/><text class="cls-2" transform="translate(0 293.25)">100</text><line class="cls-1" x1="25.68" y1="277.96" x2="19.68" y2="277.96"/><line class="cls-1" x1="25.68" y1="265.87" x2="19.68" y2="265.87"/><line class="cls-1" x1="25.68" y1="253.78" x2="19.68" y2="253.78"/><line class="cls-1" x1="25.68" y1="241.69" x2="19.68" y2="241.69"/><line class="cls-1" x1="25.68" y1="229.6" x2="19.68" y2="229.6"/><text class="cls-2" transform="translate(0 232.8)">200</text><line class="cls-1" x1="25.68" y1="217.51" x2="19.68" y2="217.51"/><line class="cls-1" x1="25.68" y1="205.42" x2="19.68" y2="205.42"/><line class="cls-1" x1="25.68" y1="193.33" x2="19.68" y2="193.33"/><line class="cls-1" x1="25.68" y1="181.24" x2="19.68" y2="181.24"/><line class="cls-1" x1="25.68" y1="169.15" x2="19.68" y2="169.15"/><text class="cls-2" transform="translate(0 172.35)">300</text><line class="cls-1" x1="25.68" y1="157.06" x2="19.68" y2="157.06"/><line class="cls-1" x1="25.68" y1="144.97" x2="19.68" y2="144.97"/><line class="cls-1" x1="25.68" y1="132.88" x2="19.68" y2="132.88"/><line class="cls-1" x1="25.68" y1="120.79" x2="19.68" y2="120.79"/><line class="cls-1" x1="25.68" y1="108.7" x2="19.68" y2="108.7"/><text class="cls-2" transform="translate(0 111.9)">400</text><line class="cls-1" x1="25.68" y1="96.61" x2="19.68" y2="96.61"/><line class="cls-1" x1="25.68" y1="84.52" x2="19.68" y2="84.52"/><line class="cls-1" x1="25.68" y1="72.43" x2="19.68" y2="72.43"/><line class="cls-1" x1="25.68" y1="60.34" x2="19.68" y2="60.34"/><line class="cls-1" x1="25.68" y1="48.25" x2="19.68" y2="48.25"/><text class="cls-2" transform="translate(0 51.45)">500</text><line class="cls-1" x1="25.68" y1="36.16" x2="19.68" y2="36.16"/><line class="cls-1" x1="25.68" y1="24.08" x2="19.68" y2="24.08"/><line class="cls-1" x1="25.68" y1="11.99" x2="19.68" y2="11.99"/><path class="cls-1" d="M44,20.05h6v350H44" transform="translate(-24.32 -19.55)"/><rect class="cls-3" x="25.68" y="290.05" width="166" height="60.45"/><rect class="cls-4" x="209.68" y="0.5" width="166" height="350"/><line class="cls-1" x1="108.68" y1="350.5" x2="108.68" y2="356.5"/><text class="cls-5" transform="translate(97.56 366.6)">2009</text><line class="cls-1" x1="292.68" y1="350.5" x2="292.68" y2="356.5"/><text class="cls-5" transform="translate(281.56 366.6)">2014</text><path class="cls-1" d="M50,376.05v-6H400v6" transform="translate(-24.32 -19.55)"/></svg>
