<?xml version="1.0" encoding="utf-8"?>
<!-- Generator: Adobe Illustrator 22.0.0, SVG Export Plug-In . SVG Version: 6.00 Build 0)  -->
<svg version="1.1" id="Calque_1" xmlns="http://www.w3.org/2000/svg" xmlns:xlink="http://www.w3.org/1999/xlink" x="0px" y="0px"
	 viewBox="0 0 300 300" style="enable-background:new 0 0 300 300;" xml:space="preserve">
<style type="text/css">
	.st0{fill:none;stroke:#CCCCCC;}
	.st1{font-family:'OpenSans';}
	.st2{font-size:7.9749px;}
	.st3{fill:#988F86;}
	.st4{fill:#ED2939;}
	.st5{font-family:'Roboto-Regular';}
</style>
<title>Nombre de salons de massage à Paris VF</title>
<line class="st0" x1="20.5" y1="282.2" x2="15.7" y2="282.2"/>
<text transform="matrix(1 0 0 1 8.8682 284.7236)" class="st1 st2">0</text>
<line class="st0" x1="20.5" y1="272.5" x2="15.7" y2="272.5"/>
<line class="st0" x1="20.5" y1="262.9" x2="15.7" y2="262.9"/>
<line class="st0" x1="20.5" y1="253.2" x2="15.7" y2="253.2"/>
<line class="st0" x1="20.5" y1="243.6" x2="15.7" y2="243.6"/>
<line class="st0" x1="20.5" y1="234" x2="15.7" y2="234"/>
<text transform="matrix(1 0 0 1 0 236.5156)" class="st1 st2">100</text>
<line class="st0" x1="20.5" y1="224.3" x2="15.7" y2="224.3"/>
<line class="st0" x1="20.5" y1="214.7" x2="15.7" y2="214.7"/>
<line class="st0" x1="20.5" y1="205" x2="15.7" y2="205"/>
<line class="st0" x1="20.5" y1="195.4" x2="15.7" y2="195.4"/>
<line class="st0" x1="20.5" y1="185.8" x2="15.7" y2="185.8"/>
<text transform="matrix(1 0 0 1 0 188.3076)" class="st1 st2">200</text>
<line class="st0" x1="20.5" y1="176.1" x2="15.7" y2="176.1"/>
<line class="st0" x1="20.5" y1="166.5" x2="15.7" y2="166.5"/>
<line class="st0" x1="20.5" y1="156.8" x2="15.7" y2="156.8"/>
<line class="st0" x1="20.5" y1="147.2" x2="15.7" y2="147.2"/>
<line class="st0" x1="20.5" y1="137.5" x2="15.7" y2="137.5"/>
<text transform="matrix(1 0 0 1 0 140.0991)" class="st1 st2">300</text>
<line class="st0" x1="20.5" y1="127.9" x2="15.7" y2="127.9"/>
<line class="st0" x1="20.5" y1="118.3" x2="15.7" y2="118.3"/>
<line class="st0" x1="20.5" y1="108.6" x2="15.7" y2="108.6"/>
<line class="st0" x1="20.5" y1="99" x2="15.7" y2="99"/>
<line class="st0" x1="20.5" y1="89.3" x2="15.7" y2="89.3"/>
<text transform="matrix(1 0 0 1 0 91.8906)" class="st1 st2">400</text>
<line class="st0" x1="20.5" y1="79.7" x2="15.7" y2="79.7"/>
<line class="st0" x1="20.5" y1="70.1" x2="15.7" y2="70.1"/>
<line class="st0" x1="20.5" y1="60.4" x2="15.7" y2="60.4"/>
<line class="st0" x1="20.5" y1="50.8" x2="15.7" y2="50.8"/>
<line class="st0" x1="20.5" y1="41.1" x2="15.7" y2="41.1"/>
<text transform="matrix(1 0 0 1 0 43.6826)" class="st1 st2">500</text>
<line class="st0" x1="20.5" y1="31.5" x2="15.7" y2="31.5"/>
<line class="st0" x1="20.5" y1="21.9" x2="15.7" y2="21.9"/>
<line class="st0" x1="20.5" y1="12.2" x2="15.7" y2="12.2"/>
<path class="st0" d="M15.7,3.1h4.8v279.1h-4.8"/>
<rect x="20.5" y="234" class="st3" width="132.4" height="48.2"/>
<rect x="167.2" y="3.1" class="st4" width="132.4" height="279.1"/>
<line class="st0" x1="86.7" y1="282.2" x2="86.7" y2="287"/>
<text transform="matrix(1 0 0 1 77.8032 295.0117)" class="st5 st2">2009</text>
<line class="st0" x1="233.4" y1="282.2" x2="233.4" y2="287"/>
<text transform="matrix(1 0 0 1 224.541 295.0117)" class="st5 st2">2014</text>
<path class="st0" d="M20.5,287v-4.8h279.1v4.8"/>
</svg>
