<svg xmlns="http://www.w3.org/2000/svg" viewBox="0 0 300.1 294.57"><defs><style>.a{fill:none;stroke:#ccc;}.b,.e{isolation:isolate;font-size:7.97px;}.b{font-family:OpenSans, Open Sans;}.c{fill:#988f86;}.d{fill:#ed2939;}.e{font-family:Roboto-Regular, Roboto;}</style></defs><title>Nombre de salons de massage à Paris VF</title><line class="a" x1="20.5" y1="279.6" x2="15.7" y2="279.6"/><text class="b" transform="translate(8.87 282.12)">0</text><line class="a" x1="20.5" y1="269.9" x2="15.7" y2="269.9"/><line class="a" x1="20.5" y1="260.3" x2="15.7" y2="260.3"/><line class="a" x1="20.5" y1="250.6" x2="15.7" y2="250.6"/><line class="a" x1="20.5" y1="241" x2="15.7" y2="241"/><line class="a" x1="20.5" y1="231.4" x2="15.7" y2="231.4"/><text class="b" transform="translate(0 233.92)">100</text><line class="a" x1="20.5" y1="221.7" x2="15.7" y2="221.7"/><line class="a" x1="20.5" y1="212.1" x2="15.7" y2="212.1"/><line class="a" x1="20.5" y1="202.4" x2="15.7" y2="202.4"/><line class="a" x1="20.5" y1="192.8" x2="15.7" y2="192.8"/><line class="a" x1="20.5" y1="183.2" x2="15.7" y2="183.2"/><text class="b" transform="translate(0 185.71)">200</text><line class="a" x1="20.5" y1="173.5" x2="15.7" y2="173.5"/><line class="a" x1="20.5" y1="163.9" x2="15.7" y2="163.9"/><line class="a" x1="20.5" y1="154.2" x2="15.7" y2="154.2"/><line class="a" x1="20.5" y1="144.6" x2="15.7" y2="144.6"/><line class="a" x1="20.5" y1="134.9" x2="15.7" y2="134.9"/><text class="b" transform="translate(0 137.5)">300</text><line class="a" x1="20.5" y1="125.3" x2="15.7" y2="125.3"/><line class="a" x1="20.5" y1="115.7" x2="15.7" y2="115.7"/><line class="a" x1="20.5" y1="106" x2="15.7" y2="106"/><line class="a" x1="20.5" y1="96.4" x2="15.7" y2="96.4"/><line class="a" x1="20.5" y1="86.7" x2="15.7" y2="86.7"/><text class="b" transform="translate(0 89.29)">400</text><line class="a" x1="20.5" y1="77.1" x2="15.7" y2="77.1"/><line class="a" x1="20.5" y1="67.5" x2="15.7" y2="67.5"/><line class="a" x1="20.5" y1="57.8" x2="15.7" y2="57.8"/><line class="a" x1="20.5" y1="48.2" x2="15.7" y2="48.2"/><line class="a" x1="20.5" y1="38.5" x2="15.7" y2="38.5"/><text class="b" transform="translate(0 41.08)">500</text><line class="a" x1="20.5" y1="28.9" x2="15.7" y2="28.9"/><line class="a" x1="20.5" y1="19.3" x2="15.7" y2="19.3"/><line class="a" x1="20.5" y1="9.6" x2="15.7" y2="9.6"/><path class="a" d="M15.7,3.1h4.8V282.2H15.7" transform="translate(0 -2.6)"/><rect class="c" x="20.5" y="231.4" width="132.4" height="48.2"/><rect class="d" x="167.2" y="0.5" width="132.4" height="279.1"/><line class="a" x1="86.7" y1="279.6" x2="86.7" y2="284.4"/><text class="e" transform="translate(77.8 292.41)">2009</text><line class="a" x1="233.4" y1="279.6" x2="233.4" y2="284.4"/><text class="e" transform="translate(224.54 292.41)">2014</text><path class="a" d="M20.5,287v-4.8H299.6V287" transform="translate(0 -2.6)"/></svg>