<svg xmlns="http://www.w3.org/2000/svg" viewBox="0 0 375.85 240.96"><defs><style>.a{fill:#ed2939;}.b{fill:#988f86;}.c,.d{isolation:isolate;font-family:Roboto-Regular, Roboto;}.c{font-size:12.68px;fill:#424242;}.d{font-size:10.15px;}</style></defs><title>Origine régionale des prostituées migrantes originaires du Nigéria VF</title><path class="a" d="M134.48,12a120.48,120.48,0,1,1-58,14.88L101,71.36a69.71,69.71,0,1,0,33.6-8.64V12Z" transform="translate(-14 -12)"/><path class="b" d="M76.48,26.88a120.57,120.57,0,0,1,58-14.88V62.72a69.57,69.57,0,0,0-33.6,8.64Z" transform="translate(-14 -12)"/><text class="c" transform="translate(137.1 217.04)">92</text><text class="c" transform="translate(93.32 32.77)">8</text><rect class="a" x="247.36" y="6.72" width="17.92" height="17.92"/><text class="d" transform="translate(271.79 14.52)">Originaires de l&apos;Etat </text><text class="d" transform="translate(271.79 26.7)">d&apos;Edo (capitale : Benin </text><text class="d" transform="translate(271.79 38.87)">City)</text><rect class="b" x="247.36" y="49.84" width="17.92" height="17.92"/><text class="d" transform="translate(271.79 57.64)">Originaires du reste du </text><text class="d" transform="translate(271.79 69.82)">Nigéria</text></svg>