<?xml version="1.0" encoding="utf-8"?>
<!-- Generator: Adobe Illustrator 22.0.0, SVG Export Plug-In . SVG Version: 6.00 Build 0)  -->
<svg version="1.1" id="Calque_1" xmlns="http://www.w3.org/2000/svg" xmlns:xlink="http://www.w3.org/1999/xlink" x="0px" y="0px"
	 viewBox="0 0 500 500" style="enable-background:new 0 0 500 500;" xml:space="preserve">
<style type="text/css">
	.st0{fill:#ED2939;}
	.st1{fill:#988F86;}
	.st2{fill:#424242;}
	.st3{font-family:'Roboto-Regular';}
	.st4{font-size:15.8544px;}
	.st5{font-size:12.6835px;}
</style>
<title>Origine régionale des prostituées migrantes originaires du Nigéria VF</title>
<path class="st0" d="M168.1,15c83.2,0,150.6,67.4,150.6,150.6c0,83.2-67.4,150.6-150.6,150.6c-83.2,0-150.6-67.4-150.6-150.6
	c0-54.9,29.9-105.5,78.1-132l30.6,55.6c-42.2,23.2-57.6,76.2-34.4,118.4s76.2,57.6,118.4,34.4s57.6-76.2,34.4-118.4
	c-15.3-27.9-44.6-45.2-76.4-45.2V15z"/>
<path class="st1" d="M95.6,33.6C117.8,21.4,142.8,15,168.1,15v63.4c-14.7,0-29.1,3.7-42,10.8L95.6,33.6z"/>
<text transform="matrix(1 0 0 1 188.8799 286.2967)" class="st2 st3 st4">92</text>
<text transform="matrix(1 0 0 1 134.1504 55.9646)" class="st2 st3 st4">8</text>
<rect x="326.7" y="23.4" class="st0" width="22.4" height="22.4"/>
<text transform="matrix(1 0 0 1 357.2383 33.1502)" class="st3 st5">Originaires de l&apos;Etat </text>
<text transform="matrix(1 0 0 1 357.2383 48.3704)" class="st3 st5">d&apos;Edo (capitale : Benin </text>
<text transform="matrix(1 0 0 1 357.2383 63.5906)" class="st3 st5">City)</text>
<rect x="326.7" y="77.3" class="st1" width="22.4" height="22.4"/>
<text transform="matrix(1 0 0 1 357.2383 87.055)" class="st3 st5">Originaires du reste du </text>
<text transform="matrix(1 0 0 1 357.2383 102.2752)" class="st3 st5">Nigéria</text>
</svg>
