<?xml version="1.0" encoding="utf-8"?>
<!-- Generator: Adobe Illustrator 22.0.0, SVG Export Plug-In . SVG Version: 6.00 Build 0)  -->
<svg version="1.1" id="Calque_1" xmlns="http://www.w3.org/2000/svg" xmlns:xlink="http://www.w3.org/1999/xlink" x="0px" y="0px"
	 viewBox="0 0 310.9 207.2" style="enable-background:new 0 0 310.9 207.2;" xml:space="preserve">
<style type="text/css">
	.st0{fill:#ED2939;}
	.st1{fill:#988F86;}
	.st2{fill:none;}
	.st3{fill:#424242;}
	.st4{font-family:'Roboto-Regular';}
	.st5{font-size:8.2251px;}
	.st6{font-size:12px;}
</style>
<title>Part des salons de massage parisiens susceptibles de mener des activités de prostitution VF</title>
<path class="st0" d="M194.3,1.3c43.1,0,78.1,34.9,78.1,78c0,43.1-34.9,78.1-78,78.1c-3,0-6-0.2-8.9-0.5l3.8-32.7
	c24.8,2.7,47.1-15.2,49.8-40.1c2.7-24.6-14.9-46.7-39.5-49.7c-1.7-0.2-3.4-0.3-5.2-0.3L194.3,1.3L194.3,1.3z"/>
<path class="st1" d="M185.4,157c-42.9-4.5-73.9-43-69.4-85.8c4.2-39.9,38.1-70.1,78.2-69.8v32.9c-25,0.1-45.2,20.3-45.1,45.3
	c0,22.9,17.3,42.2,40,44.8L185.4,157z"/>
<rect x="247" y="78.7" class="st2" width="13.9" height="9.3"/>
<text transform="matrix(1 0 0 1 247.0115 85.7702)" class="st3 st4 st5">300</text>
<rect x="124.9" y="77.7" class="st2" width="13.9" height="9.3"/>
<text transform="matrix(1 0 0 1 124.9075 84.7702)" class="st3 st4 st5">279</text>
<rect x="96.1" y="160.8" class="st0" width="15.1" height="15.1"/>
<rect x="96.1" y="191" class="st1" width="15.1" height="15.1"/>
<text transform="matrix(1 0 0 1 118.9344 168.3339)"><tspan x="0" y="0" class="st4 st6">Salons susceptibles d’héberger des </tspan><tspan x="0" y="14.4" class="st4 st6">activités de prostitution</tspan></text>
<rect x="117.6" y="190.5" class="st2" width="138.2" height="12.7"/>
<text transform="matrix(1 0 0 1 117.575 199.4736)" class="st4 st6">Autres salons</text>
</svg>
