<?xml version="1.0" encoding="utf-8"?>
<!-- Generator: Adobe Illustrator 22.0.0, SVG Export Plug-In . SVG Version: 6.00 Build 0)  -->
<svg version="1.1" id="Calque_1" xmlns="http://www.w3.org/2000/svg" xmlns:xlink="http://www.w3.org/1999/xlink" x="0px" y="0px"
	 viewBox="0 0 304.2 190" style="enable-background:new 0 0 304.2 190;" xml:space="preserve">
<style type="text/css">
	.st0{fill:#988F86;}
	.st1{fill:#ED2939;}
	.st2{fill:#424242;}
	.st3{font-family:'Roboto-Regular';}
	.st4{font-size:10px;}
</style>
<title>Part des prostituées migrantes originaires de Bulgarie qui passent par l&amp;apos;Italie VF</title>
<path class="st0" d="M4.7,124.4C-11.5,74.5,15.8,20.9,65.7,4.7C75.2,1.6,85.1,0,95,0v40c-30.4,0-55,24.6-55,55
	c0,5.8,0.9,11.5,2.7,17L4.7,124.4z"/>
<path class="st1" d="M95,0c52.5,0,95,42.5,95,95c0,52.5-42.5,95-95,95c-41.2,0-77.6-26.5-90.3-65.6l38-12.4
	c9.4,28.9,40.4,44.7,69.3,35.3s44.7-40.4,35.3-69.3c-7.4-22.6-28.5-38-52.3-38V0z"/>
<text transform="matrix(1 0 0 1 28.79 54.42)" class="st2 st3 st4">30</text>
<text transform="matrix(1 0 0 1 150.14 142.58)" class="st2 st3 st4">70</text>
<rect x="188" y="6.3" class="st1" width="14.1" height="14.1"/>
<text transform="matrix(1 0 0 1 204.31 12.47)" class="st3 st4">Prostituées migrantes </text>
<text transform="matrix(1 0 0 1 204.31 22.07)" class="st3 st4">originaires du Nigeria </text>
<text transform="matrix(1 0 0 1 204.31 31.67)" class="st3 st4">qui transitent par </text>
<text transform="matrix(1 0 0 1 204.31 41.27)" class="st3 st4">l&apos;Italie</text>
<rect x="188" y="50.3" class="st0" width="14.1" height="14.1"/>
<text transform="matrix(1 0 0 1 204.31 56.47)" class="st3 st4">Prostituées migrantes </text>
<text transform="matrix(1 0 0 1 204.31 66.07)" class="st3 st4">originaires du Nigeria </text>
<text transform="matrix(1 0 0 1 204.31 75.67)" class="st3 st4">qui transitent par </text>
<text transform="matrix(1 0 0 1 204.31 85.27)" class="st3 st4">d&apos;autres pays</text>
</svg>
