<svg id="Calque_1" width="300" height="300" xmlns="http://www.w3.org/2000/svg" viewBox="0 0 305.15 320"><defs><style>.cls-1{fill:#ed2939;}.cls-2{fill:#988f86;}.cls-3{isolation:isolate;font-size:10px;fill:#424242;font-family:ArialMT, Arial;}.cls-4{font-size:8px;font-family:OpenSans, Open Sans;}</style></defs><title>Part des salons de massage parisiens susceptibles de mener des activités de prostitution VF</title><path class="cls-1" d="M100,5A95,95,0,1,1,89.2,194.38l4.55-39.74A55,55,0,1,0,100,45Z" transform="translate(-4.99 -5)"/><path class="cls-2" d="M89.2,194.38A95,95,0,0,1,100,5V45a55,55,0,0,0-6.25,109.64Z" transform="translate(-4.99 -5)"/><text class="cls-3" transform="translate(161.54 102.77)">300</text><text class="cls-3" transform="translate(11.79 94.23)">279</text><rect class="cls-1" x="198.01" y="3.29" width="14.14" height="14.14"/><text class="cls-4" transform="translate(217.29 9.47)">Salons de massages <tspan x="0" y="9.6">parisiens susceptibles </tspan><tspan x="0" y="19.2">de mener des activités </tspan><tspan x="0" y="28.8">de prostitution</tspan></text><rect class="cls-2" x="198.01" y="47.29" width="14.14" height="14.14"/><text class="cls-4" transform="translate(217.29 53.47)">Autres salons de <tspan x="0" y="9.6">massages parisiens</tspan></text></svg>
