<svg version="1.1" encoding="utf-8" width="120" height="120" xmlns="http://www.w3.org/2000/svg" xmlns:xlink="http://www.w3.org/1999/xlink" x="0px" y="0px" viewBox="0 0 295.2 178.1" style="enable-background:new 0 0 295.2 178.1;" xml:space="preserve">
<style type="text/css">.st0{fill:#ED2939;}.st1{fill:#988F86;}.st2{fill:#424242;}.st3{font-family:'Roboto-Regular';}.st4{font-size:9.38px;}.st5{enable-background:new    ;}.st6{font-size:10px;}</style><path class="st0" d="M89,0c49.2,0,89.1,39.8,89.1,89s-39.8,89.1-89,89.1c-3.4,0-6.8-0.2-10.2-0.6l4.3-37.3c28.3,3.1,53.7-17.4,56.8-45.7c3-28-17-53.3-45-56.7c-2-0.2-3.9-0.3-5.9-0.3L89,0L89,0z"/>
<path class="st1" d="M78.9,177.5c-48.9-5.2-84.3-49-79.1-97.9C4.6,34.1,43.2-0.4,89,0v37.5c-28.5,0.1-51.5,23.2-51.5,51.7c0.1,26.2,19.7,48.1,45.7,51.1L78.9,177.5z"/><text transform="matrix(1 0 0 1 151.39 88.34)" class="st2 st3 st4">300</text><text transform="matrix(1 0 0 1 11 88.34)" class="st2 st3 st4">279</text><rect x="173.1" y="5.7" class="st0" width="13.3" height="13.3"/><text transform="matrix(1 0 0 1 191.16 11.48)" class="st5"><tspan x="0" y="0" class="st3 st6">Salon</tspan><tspan x="25" y="0" class="st3 st6">s</tspan><tspan x="30" y="0" class="st3 st6"> susceptibles</tspan></text><text transform="matrix(1 0 0 1 187.9598 20.48)" class="st3 st6"> de mener des activités</text><text transform="matrix(1 0 0 1 191.1599 31.48)" class="st3 st6">de p</text><text transform="matrix(1 0 0 1 210.1799 31.48)" class="st3 st6">r</text><text transform="matrix(1 0 0 1 213.4699 31.48)" class="st3 st6">ostitution</text><rect x="173.1" y="40.9" class="st1" width="13.3" height="13.3"/><text transform="matrix(1 0 0 1 191.16 46.73)" class="st3 st6">A</text><text transform="matrix(1 0 0 1 197.63 46.73)" class="st3 st6">utres salons </text></svg>
