<svg xmlns="http://www.w3.org/2000/svg" viewBox="0 0 295.21 178.1"><defs><style>.a{fill:#ed2939;}.b{fill:#988f86;}.c,.d{isolation:isolate;font-family:Roboto-Regular, Roboto;}.c{font-size:9.38px;fill:#424242;}.d{font-size:10px;}.e{letter-spacing:-0.01em;}.f{letter-spacing:-0.01em;}</style></defs><title>Part des salons de massage parisiens susceptibles de mener des activités de prostitution VF</title><path class="a" d="M93,3.1a89.05,89.05,0,1,1,.1,178.1,87.23,87.23,0,0,1-10.2-.6l4.3-37.3A51.54,51.54,0,0,0,99,40.9a58.28,58.28,0,0,0-5.9-.3V3.1Z" transform="translate(-4.01 -3.1)"/><path class="b" d="M82.9,180.6A89,89,0,0,1,93,3.1V40.6a51.57,51.57,0,0,0-5.8,102.8Z" transform="translate(-4.01 -3.1)"/><text class="c" transform="translate(151.39 88.34)">300</text><text class="c" transform="translate(11 88.34)">279</text><rect class="a" x="174.59" y="3.1" width="13.3" height="13.3"/><text class="d" transform="translate(192.66 8.88)">Salons de massages </text><text class="d" transform="translate(192.66 17.88)">parisiens susceptibles </text><text class="d" transform="translate(192.66 26.88)">de mener des activités </text><text class="d" transform="translate(192.66 35.88)">de p<tspan class="e" x="19.02" y="0">r</tspan><tspan x="22.31" y="0">ostitution</tspan></text><rect class="b" x="174.59" y="44.3" width="13.3" height="13.3"/><text class="d" transform="translate(192.66 50.13)"><tspan class="f">A</tspan><tspan x="6.47" y="0">utres salons de </tspan></text><text class="d" transform="translate(192.66 59.13)">massages parisiens</text></svg>